# xmcd
#
# Track frame offsets: 
#        150
#        12246
#        28650
#        43770
#        57511
#        69173
#        89285
#        108987
#        129122
#        135776
#        148310
#        158973
#        166048
#        176581
#        183557
#        194968
#        208019
#        220019
#        233287
#        245874
#        261482
#        282014
#        302375
#        312299
#        325731
#        335447
#        346783
#
# Disc length: 4763 seconds
#
# Revision: 0
# Processed by: cddbd v1.5.2PL0 Copyright (c) Steve Scherf et al.
# Submitted via: ExactAudioCopy v1.3
#
DISCID=8212991b
DTITLE=Winnie Winston - Winnie Winston_Wanted For Steeling
DYEAR=2017
DGENRE=Instrumental
TTITLE0=Right Out The Door
TTITLE1=Almost Home
TTITLE2=Steady As She Goes
TTITLE3=Downhill Blues
TTITLE4=Old New Orleans R and B
TTITLE5=Dancing Steel
TTITLE6=Truckstop
TTITLE7=Snowballs In June
TTITLE8=Cajun Potatoes
TTITLE9=The Eagle
TTITLE10=But I Do
TTITLE11=The Frog Invasion
TTITLE12=Lonely Boys Like Me
TTITLE13=Winding Down
TTITLE14=Thanksgiving Blessing
TTITLE15=What Went Wrong
TTITLE16=Drivin' and Jivin'
TTITLE17=Misty Morn
TTITLE18=Spider Trap
TTITLE19=Waltzing Matilda
TTITLE20=Conversation
TTITLE21=Desperado
TTITLE22=Big Black Machine
TTITLE23=Old Time Friend
TTITLE24=Bouncing Off The Trees
TTITLE25=Dreaming At The Bar
TTITLE26=Mongoose
EXTD=
EXTT0=
EXTT1=
EXTT2=
EXTT3=
EXTT4=
EXTT5=
EXTT6=
EXTT7=
EXTT8=
EXTT9=
EXTT10=
EXTT11=
EXTT12=
EXTT13=
EXTT14=
EXTT15=
EXTT16=
EXTT17=
EXTT18=
EXTT19=
EXTT20=
EXTT21=
EXTT22=
EXTT23=
EXTT24=
EXTT25=
EXTT26=
PLAYORDER=
